<?xml version="1.0" encoding="utf-8"?>
<!-- Generator: Adobe Illustrator 26.5.0, SVG Export Plug-In . SVG Version: 6.00 Build 0)  -->
<svg version="1.1" id="Layer_1" xmlns="http://www.w3.org/2000/svg" xmlns:xlink="http://www.w3.org/1999/xlink" x="0px" y="0px"
	 viewBox="0 0 1080 1080" style="enable-background:new 0 0 1080 1080;" xml:space="preserve">
<style type="text/css">
	.st0{fill:#1071FF;}
</style>
<g transform="translate(0.000000,1080.000000) scale(0.100000,-0.100000)">
	<path d="M9027,7418c-3-3703,2-3413-58-3718c-217-1117-922-2049-1933-2557c-378-190-725-296-1176-359c-182-26-691-26-880-1
		c-1072,144-1975,702-2569,1587c-320,478-518,1016-587,1600c-19,157-25,564-11,703l8,77h-384h-384l-6-122c-46-848,142-1664,553-2403
		c83-149,269-425,379-564C2702,751,3715,179,4870,29c234-30,705-38,950-14c898,84,1724,428,2413,1003c45,38,77,73,77,84
		c0,12,7,18,22,18c25,0,220,188,372,360c535,606,896,1362,1030,2158l26,154v3049v3050l-92,137c-98,147-227,321-327,442
		c-79,95-294,328-303,329C9034,10800,9029,9278,9027,7418z"/>
	<path class="st0" d="M1040,7675V5480h2195h2195v2195v2195H3235H1040V7675z M4690,7670V6210H3235H1780v1460v1460h1455h1455V7670z"/>
	<path d="M7580,6374V4068l-25-124c-69-339-237-690-458-954c-361-431-873-708-1426-771c-136-15-476-7-596,15
		c-471,87-869,297-1196,632c-374,385-582,866-614,1419c-5,99,1,220,21,403l7,62h-375h-376l-6-28c-4-15-10-139-13-277
		c-6-276,7-432,52-657c53-259,118-445,245-704c144-293,309-522,545-760c325-327,714-566,1152-710c587-192,1248-188,1828,9
		c334,115,653,292,917,509c119,99,325,307,418,423c118,146,250,354,340,540c148,301,221,537,269,870c21,137,21,176,21,2072v1932
		l-92,113c-119,146-351,378-502,501c-66,53-124,97-128,97S7580,7642,7580,6374z"/>
	<path d="M6130,5480c0-1268,0-1281-21-1343c-32-97-95-195-178-277c-89-87-173-140-286-177c-72-24-95-27-220-27s-148,3-220,27
		c-44,14-109,43-145,64c-69,40-212,176-243,231l-18,32h310h311v370v370h-705c-388,0-705-1-705-3c0-1-7-34-15-72
		c-59-278-28-601,83-867c190-456,606-787,1097-874c135-23,366-23,500,0c286,51,548,184,757,385c122,116,210,232,282,371
		c66,127,89,186,121,309l25,93v838v838l-25,93c-32,123-55,182-121,309c-72,139-160,255-283,372c-86,83-268,218-293,218
		C6134,6760,6130,6184,6130,5480z"/>
</g>
</svg>
